<mxfile host="app.diagrams.net" modified="2024-02-05T18:17:37.242Z" agent="Mozilla/5.0 (Windows NT 10.0; Win64; x64) AppleWebKit/537.36 (KHTML, like Gecko) Chrome/121.0.0.0 Safari/537.36" etag="bmIQvzEWzuJ26cVR_1DH" version="23.0.2" type="github">
  <diagram name="Page-1" id="VelMj1rMVRJqSPO1DAbi">
    <mxGraphModel dx="2234" dy="1622" grid="1" gridSize="10" guides="1" tooltips="1" connect="1" arrows="1" fold="1" page="0" pageScale="1" pageWidth="827" pageHeight="1169" math="0" shadow="0">
      <root>
        <mxCell id="0" />
        <mxCell id="1" parent="0" />
        <mxCell id="h86rrXCtbzYxMPmrR3lT-4" style="edgeStyle=none;curved=1;rounded=0;orthogonalLoop=1;jettySize=auto;html=1;exitX=0.5;exitY=1;exitDx=0;exitDy=0;entryX=0.5;entryY=0;entryDx=0;entryDy=0;fontSize=12;startSize=8;endSize=8;" parent="1" source="h86rrXCtbzYxMPmrR3lT-1" target="h86rrXCtbzYxMPmrR3lT-2" edge="1">
          <mxGeometry relative="1" as="geometry" />
        </mxCell>
        <mxCell id="h86rrXCtbzYxMPmrR3lT-1" value="Yahoo Finance" style="shape=datastore;whiteSpace=wrap;html=1;fontSize=16;" parent="1" vertex="1">
          <mxGeometry x="-580" y="-790" width="90" height="110" as="geometry" />
        </mxCell>
        <mxCell id="h86rrXCtbzYxMPmrR3lT-5" style="edgeStyle=none;curved=1;rounded=0;orthogonalLoop=1;jettySize=auto;html=1;exitX=0.5;exitY=1;exitDx=0;exitDy=0;entryX=0.5;entryY=0;entryDx=0;entryDy=0;fontSize=12;startSize=8;endSize=8;" parent="1" source="h86rrXCtbzYxMPmrR3lT-2" target="h86rrXCtbzYxMPmrR3lT-3" edge="1">
          <mxGeometry relative="1" as="geometry" />
        </mxCell>
        <mxCell id="h86rrXCtbzYxMPmrR3lT-2" value="" style="image;html=1;image=img/lib/clip_art/computers/Data_Filtering_128x128.png;fontSize=16;" parent="1" vertex="1">
          <mxGeometry x="-575" y="-640" width="80" height="80" as="geometry" />
        </mxCell>
        <mxCell id="h86rrXCtbzYxMPmrR3lT-20" style="edgeStyle=none;curved=1;rounded=0;orthogonalLoop=1;jettySize=auto;html=1;exitX=0.5;exitY=1;exitDx=0;exitDy=0;entryX=0.5;entryY=0;entryDx=0;entryDy=0;fontSize=12;startSize=8;endSize=8;" parent="1" source="h86rrXCtbzYxMPmrR3lT-3" target="h86rrXCtbzYxMPmrR3lT-7" edge="1">
          <mxGeometry relative="1" as="geometry" />
        </mxCell>
        <mxCell id="h86rrXCtbzYxMPmrR3lT-3" value="Filtered &lt;br&gt;Data" style="shape=parallelogram;html=1;strokeWidth=2;perimeter=parallelogramPerimeter;whiteSpace=wrap;rounded=1;arcSize=12;size=0.23;fontSize=16;" parent="1" vertex="1">
          <mxGeometry x="-592.5" y="-520" width="115" height="70" as="geometry" />
        </mxCell>
        <mxCell id="h86rrXCtbzYxMPmrR3lT-13" style="edgeStyle=none;curved=1;rounded=0;orthogonalLoop=1;jettySize=auto;html=1;exitX=0.5;exitY=0;exitDx=0;exitDy=0;entryX=0.5;entryY=0;entryDx=0;entryDy=0;fontSize=12;startSize=8;endSize=8;" parent="1" source="h86rrXCtbzYxMPmrR3lT-7" target="h86rrXCtbzYxMPmrR3lT-9" edge="1">
          <mxGeometry relative="1" as="geometry" />
        </mxCell>
        <mxCell id="h86rrXCtbzYxMPmrR3lT-15" style="edgeStyle=none;curved=1;rounded=0;orthogonalLoop=1;jettySize=auto;html=1;exitX=0.5;exitY=0;exitDx=0;exitDy=0;entryX=0.5;entryY=0;entryDx=0;entryDy=0;fontSize=12;startSize=8;endSize=8;" parent="1" source="h86rrXCtbzYxMPmrR3lT-7" target="h86rrXCtbzYxMPmrR3lT-9" edge="1">
          <mxGeometry relative="1" as="geometry" />
        </mxCell>
        <mxCell id="h86rrXCtbzYxMPmrR3lT-18" style="edgeStyle=none;curved=1;rounded=0;orthogonalLoop=1;jettySize=auto;html=1;exitX=0.5;exitY=0;exitDx=0;exitDy=0;entryX=0.5;entryY=0;entryDx=0;entryDy=0;fontSize=12;startSize=8;endSize=8;" parent="1" source="h86rrXCtbzYxMPmrR3lT-7" target="h86rrXCtbzYxMPmrR3lT-9" edge="1">
          <mxGeometry relative="1" as="geometry" />
        </mxCell>
        <mxCell id="h86rrXCtbzYxMPmrR3lT-22" style="edgeStyle=none;curved=1;rounded=0;orthogonalLoop=1;jettySize=auto;html=1;exitX=0.5;exitY=0;exitDx=0;exitDy=0;entryX=0.5;entryY=0;entryDx=0;entryDy=0;fontSize=12;startSize=8;endSize=8;" parent="1" source="h86rrXCtbzYxMPmrR3lT-7" target="h86rrXCtbzYxMPmrR3lT-9" edge="1">
          <mxGeometry relative="1" as="geometry" />
        </mxCell>
        <mxCell id="h86rrXCtbzYxMPmrR3lT-7" value="" style="rounded=0;whiteSpace=wrap;html=1;fontSize=16;fillColor=default;" parent="1" vertex="1">
          <mxGeometry x="-740" y="-400" width="410" height="300" as="geometry" />
        </mxCell>
        <mxCell id="h86rrXCtbzYxMPmrR3lT-14" style="edgeStyle=none;curved=1;rounded=0;orthogonalLoop=1;jettySize=auto;html=1;exitX=0.5;exitY=1;exitDx=0;exitDy=0;entryX=0.5;entryY=0;entryDx=0;entryDy=0;fontSize=12;startSize=8;endSize=8;" parent="1" source="h86rrXCtbzYxMPmrR3lT-9" target="h86rrXCtbzYxMPmrR3lT-10" edge="1">
          <mxGeometry relative="1" as="geometry" />
        </mxCell>
        <mxCell id="h86rrXCtbzYxMPmrR3lT-9" value="Split" style="shape=process;whiteSpace=wrap;html=1;backgroundOutline=1;fontSize=16;" parent="1" vertex="1">
          <mxGeometry x="-595" y="-370" width="120" height="60" as="geometry" />
        </mxCell>
        <mxCell id="h86rrXCtbzYxMPmrR3lT-16" style="edgeStyle=none;curved=1;rounded=0;orthogonalLoop=1;jettySize=auto;html=1;exitX=0.5;exitY=1;exitDx=0;exitDy=0;entryX=0.5;entryY=0;entryDx=0;entryDy=0;fontSize=12;startSize=8;endSize=8;" parent="1" source="h86rrXCtbzYxMPmrR3lT-10" target="h86rrXCtbzYxMPmrR3lT-11" edge="1">
          <mxGeometry relative="1" as="geometry" />
        </mxCell>
        <mxCell id="h86rrXCtbzYxMPmrR3lT-10" value="Analyze" style="shape=process;whiteSpace=wrap;html=1;backgroundOutline=1;fontSize=16;" parent="1" vertex="1">
          <mxGeometry x="-595" y="-280" width="120" height="60" as="geometry" />
        </mxCell>
        <mxCell id="h86rrXCtbzYxMPmrR3lT-30" style="edgeStyle=none;curved=1;rounded=0;orthogonalLoop=1;jettySize=auto;html=1;exitX=0.25;exitY=1;exitDx=0;exitDy=0;fontSize=12;startSize=8;endSize=8;" parent="1" source="h86rrXCtbzYxMPmrR3lT-11" target="h86rrXCtbzYxMPmrR3lT-28" edge="1">
          <mxGeometry relative="1" as="geometry" />
        </mxCell>
        <mxCell id="h86rrXCtbzYxMPmrR3lT-11" value="Logarithmic Transformation" style="shape=process;whiteSpace=wrap;backgroundOutline=1;fontSize=16;html=1;" parent="1" vertex="1">
          <mxGeometry x="-650" y="-195" width="230" height="60" as="geometry" />
        </mxCell>
        <mxCell id="h86rrXCtbzYxMPmrR3lT-33" style="edgeStyle=none;curved=1;rounded=0;orthogonalLoop=1;jettySize=auto;html=1;exitX=0.5;exitY=1;exitDx=0;exitDy=0;exitPerimeter=0;entryX=0.75;entryY=0;entryDx=0;entryDy=0;fontSize=12;startSize=8;endSize=8;" parent="1" source="h86rrXCtbzYxMPmrR3lT-26" target="h86rrXCtbzYxMPmrR3lT-32" edge="1">
          <mxGeometry relative="1" as="geometry" />
        </mxCell>
        <mxCell id="h86rrXCtbzYxMPmrR3lT-26" value="ARIMA Model" style="sketch=0;points=[[0,0,0],[0.25,0,0],[0.5,0,0],[0.75,0,0],[1,0,0],[0,1,0],[0.25,1,0],[0.5,1,0],[0.75,1,0],[1,1,0],[0,0.25,0],[0,0.5,0],[0,0.75,0],[1,0.25,0],[1,0.5,0],[1,0.75,0]];outlineConnect=0;fontColor=#232F3E;fillColor=#01A88D;strokeColor=#ffffff;dashed=0;verticalLabelPosition=bottom;verticalAlign=top;align=center;html=1;fontSize=12;fontStyle=0;aspect=fixed;shape=mxgraph.aws4.resourceIcon;resIcon=mxgraph.aws4.machine_learning;" parent="1" vertex="1">
          <mxGeometry x="-490" y="-60" width="78" height="78" as="geometry" />
        </mxCell>
        <mxCell id="h86rrXCtbzYxMPmrR3lT-34" style="edgeStyle=none;curved=1;rounded=0;orthogonalLoop=1;jettySize=auto;html=1;entryX=0.25;entryY=0;entryDx=0;entryDy=0;fontSize=12;startSize=8;endSize=8;" parent="1" source="h86rrXCtbzYxMPmrR3lT-28" target="h86rrXCtbzYxMPmrR3lT-32" edge="1">
          <mxGeometry relative="1" as="geometry" />
        </mxCell>
        <mxCell id="h86rrXCtbzYxMPmrR3lT-28" value="Holt-Winters Exponential smoothing" style="sketch=0;outlineConnect=0;fontColor=#232F3E;gradientColor=none;fillColor=#01A88D;strokeColor=none;dashed=0;verticalLabelPosition=bottom;verticalAlign=top;align=center;html=1;fontSize=12;fontStyle=0;aspect=fixed;pointerEvents=1;shape=mxgraph.aws4.sagemaker_model;" parent="1" vertex="1">
          <mxGeometry x="-658" y="-60" width="78" height="78" as="geometry" />
        </mxCell>
        <mxCell id="h86rrXCtbzYxMPmrR3lT-31" style="edgeStyle=none;curved=1;rounded=0;orthogonalLoop=1;jettySize=auto;html=1;exitX=0.75;exitY=1;exitDx=0;exitDy=0;entryX=0.5;entryY=0;entryDx=0;entryDy=0;entryPerimeter=0;fontSize=12;startSize=8;endSize=8;" parent="1" source="h86rrXCtbzYxMPmrR3lT-11" target="h86rrXCtbzYxMPmrR3lT-26" edge="1">
          <mxGeometry relative="1" as="geometry" />
        </mxCell>
        <mxCell id="h86rrXCtbzYxMPmrR3lT-32" value="Combine Results" style="rounded=1;whiteSpace=wrap;html=1;fontSize=16;" parent="1" vertex="1">
          <mxGeometry x="-597.5" y="100" width="120" height="60" as="geometry" />
        </mxCell>
      </root>
    </mxGraphModel>
  </diagram>
</mxfile>
